<svg width="21" height="21" viewBox="0 0 21 21" fill="none" xmlns="http://www.w3.org/2000/svg">
<path d="M17.666 8.2915V1M3.08301 1V15.5835M10.3745 5.1665V19.75M17.666 12.4585V19.75" stroke="black" stroke-linecap="round" stroke-linejoin="round"/>
<path d="M3.083 15.5837C2.53055 15.5837 2.00073 15.8032 1.6101 16.1938C1.21946 16.5845 1 17.1143 1 17.6667C1 18.2192 1.21946 18.749 1.6101 19.1397C2.00073 19.5303 2.53055 19.7498 3.083 19.7498C3.63545 19.7498 4.16527 19.5303 4.5559 19.1397C4.94654 18.749 5.166 18.2192 5.166 17.6667C5.166 17.1143 4.94654 16.5845 4.5559 16.1938C4.16527 15.8032 3.63545 15.5837 3.083 15.5837ZM10.3745 1.00025C10.0982 0.99597 9.82382 1.04669 9.56732 1.14946C9.31082 1.25224 9.07732 1.405 8.88042 1.59888C8.68352 1.79275 8.52716 2.02385 8.42042 2.27873C8.31369 2.53361 8.25873 2.80717 8.25873 3.0835C8.25873 3.35983 8.31369 3.63339 8.42042 3.88827C8.52716 4.14315 8.68352 4.37425 8.88042 4.56812C9.07732 4.762 9.31082 4.91476 9.56732 5.01754C9.82382 5.12031 10.0982 5.17103 10.3745 5.16675C10.9214 5.15828 11.4431 4.93507 11.8268 4.5453C12.2106 4.15554 12.4257 3.63049 12.4257 3.0835C12.4257 2.53651 12.2106 2.01146 11.8268 1.6217C11.4431 1.23194 10.9214 1.00872 10.3745 1.00025ZM17.666 8.29175C17.1134 8.29175 16.5835 8.51126 16.1927 8.90199C15.802 9.29272 15.5825 9.82267 15.5825 10.3752C15.5825 10.9278 15.802 11.4578 16.1927 11.8485C16.5835 12.2392 17.1134 12.4587 17.666 12.4587C18.2186 12.4587 18.7485 12.2392 19.1393 11.8485C19.53 11.4578 19.7495 10.9278 19.7495 10.3752C19.7495 9.82267 19.53 9.29272 19.1393 8.90199C18.7485 8.51126 18.2186 8.29175 17.666 8.29175Z" stroke="black" stroke-linecap="round" stroke-linejoin="round"/>
</svg>
