<svg width="15" height="17" viewBox="0 0 15 17" fill="none" xmlns="http://www.w3.org/2000/svg">
<path d="M7.5 8.72949L7.49902 8.72852C7.42811 8.72764 7.35749 8.72365 7.28711 8.71777C6.92315 9.08116 6.60482 9.47452 6.33105 9.88867C6.7156 9.96236 7.10697 10 7.5 10M7.5 8.72949V10M7.5 8.72949V10M7.5 8.72949L7.51465 9.99902M7.5 8.72949L7.51465 9.99902M7.5 8.72949C7.57124 8.72864 7.64219 8.72368 7.71289 8.71777C8.07667 9.08112 8.39544 9.47383 8.66895 9.8877C8.28912 9.96049 7.90282 9.99811 7.51465 9.99902M7.5 10C7.50488 10 7.50977 9.99903 7.51465 9.99902" fill="#5061FF" stroke="#5061FF" stroke-width="20"/>
</svg>
