<svg width="17" height="22" viewBox="0 0 17 22" fill="none" xmlns="http://www.w3.org/2000/svg">
<path d="M16.15 21.998C15.9421 21.9985 15.7412 21.9286 15.5853 21.8015L8.5 15.9785L1.41472 21.8015C1.29211 21.9023 1.14058 21.9681 0.978406 21.991C0.816236 22.0139 0.650359 21.9929 0.500791 21.9306C0.351222 21.8683 0.224353 21.7674 0.135492 21.6399C0.0466315 21.5124 -0.000424248 21.3639 2.88218e-06 21.2123V3.14257C0.000987211 2.30938 0.359517 1.51059 0.996927 0.921441C1.63434 0.332293 2.49857 0.0009098 3.4 0H13.6C14.5014 0.0009098 15.3657 0.332293 16.0031 0.921441C16.6405 1.51059 16.999 2.30938 17 3.14257V21.2123C17 21.4207 16.9104 21.6205 16.751 21.7678C16.5916 21.9152 16.3754 21.998 16.15 21.998Z" fill="#5061FF"/>
</svg>
