<svg width="17" height="22" viewBox="0 0 17 22" fill="none" xmlns="http://www.w3.org/2000/svg">
<path d="M3.45312 0.5H13.5469C13.9386 0.5 14.326 0.572401 14.6865 0.712891C15.047 0.853439 15.3725 1.05949 15.6455 1.31641C15.9184 1.57327 16.1334 1.87647 16.2793 2.20801C16.4251 2.53939 16.5 2.8933 16.5 3.25V21.25C16.5 21.29 16.4883 21.3316 16.4629 21.3701C16.4373 21.409 16.3976 21.4445 16.3457 21.4688C16.2937 21.493 16.2336 21.5044 16.1729 21.499C16.1121 21.4937 16.0568 21.4718 16.0127 21.4404L8.79102 16.2832L8.5 16.0752L8.20898 16.2832L0.987305 21.4395C0.943258 21.4708 0.887891 21.4927 0.827148 21.498C0.76639 21.5034 0.706286 21.492 0.654297 21.4678C0.602361 21.4435 0.562754 21.408 0.537109 21.3691C0.524387 21.3498 0.514898 21.3298 0.508789 21.3096L0.5 21.249V3.25C0.5 2.53078 0.803704 1.83479 1.35449 1.31641C1.90631 0.797064 2.66046 0.5 3.45312 0.5ZM3.45312 1C2.83689 1 2.24036 1.23019 1.7959 1.64844C1.3504 2.06773 1.09375 2.64315 1.09375 3.25V20.7109L1.88379 20.1465L8.30957 15.5596L8.30859 15.5586C8.36038 15.5218 8.42806 15.501 8.5 15.501C8.57185 15.501 8.63867 15.5228 8.69043 15.5596L15.1162 20.1465L15.9062 20.7109V3.25C15.9062 2.64315 15.6496 2.06773 15.2041 1.64844C14.7596 1.23019 14.1631 1 13.5469 1H3.45312Z" fill="#969696" stroke="#5061FF"/>
</svg>
