<svg width="14" height="20" viewBox="0 0 14 20" fill="none" xmlns="http://www.w3.org/2000/svg">
<path fill-rule="evenodd" clip-rule="evenodd" d="M7 20C6.70571 20 6.42347 19.8829 6.21537 19.6745C6.00727 19.4662 5.89037 19.1835 5.89037 18.8888V3.7918L1.8661 7.82163C1.65575 8.0179 1.37753 8.12476 1.09006 8.11968C0.802588 8.1146 0.528308 7.99798 0.325004 7.7944C0.1217 7.59081 0.00524496 7.31616 0.000172876 7.02829C-0.00489921 6.74042 0.101808 6.46182 0.297814 6.25118L6.21586 0.324964C6.42391 0.116879 6.70595 0 7 0C7.29405 0 7.57608 0.116879 7.78414 0.324964L13.7022 6.25118C13.8982 6.46182 14.0049 6.74042 13.9998 7.02829C13.9948 7.31616 13.8783 7.59081 13.675 7.7944C13.4717 7.99798 13.1974 8.1146 12.9099 8.11968C12.6225 8.12476 12.3443 8.0179 12.1339 7.82163L8.10963 3.7918V18.8888C8.10963 19.1835 7.99272 19.4662 7.78463 19.6745C7.57653 19.8829 7.29429 20 7 20Z" fill="#5061FF"/>
</svg>
